<svg xmlns="http://www.w3.org/2000/svg" xmlns:xlink="http://www.w3.org/1999/xlink" viewBox="0 0 99.53 198"><defs><style>.cls-1{mask:url(#mask);}.cls-10,.cls-14,.cls-16,.cls-2,.cls-4,.cls-6,.cls-8{mix-blend-mode:multiply;}.cls-2{fill:url(#radial-gradient);}.cls-3{mask:url(#mask-2);}.cls-4{fill:url(#radial-gradient-2);}.cls-5{mask:url(#mask-3);}.cls-6{fill:url(#radial-gradient-3);}.cls-7{mask:url(#mask-4);}.cls-8{fill:url(#radial-gradient-4);}.cls-9{mask:url(#mask-5);}.cls-10{fill:url(#radial-gradient-5);}.cls-11{isolation:isolate;}.cls-12{fill:#fff;}.cls-13{mask:url(#mask-6);}.cls-14{fill:url(#radial-gradient-6);}.cls-15{mask:url(#mask-7);}.cls-16{fill:url(#radial-gradient-7);}.cls-17{mask:url(#mask-8);}.cls-18{fill:url(#radial-gradient-8);}.cls-19{mask:url(#mask-9);}.cls-20{mix-blend-mode:screen;fill:url(#radial-gradient-9);}.cls-21{mask:url(#mask-10);}.cls-22{fill:url(#radial-gradient-10);}.cls-23{filter:url(#luminosity-noclip-10);}.cls-24{filter:url(#luminosity-noclip-9);}.cls-25{filter:url(#luminosity-noclip-8);}.cls-26{filter:url(#luminosity-noclip-7);}.cls-27{filter:url(#luminosity-noclip-6);}.cls-28{filter:url(#luminosity-noclip-5);}.cls-29{filter:url(#luminosity-noclip-4);}.cls-30{filter:url(#luminosity-noclip-3);}.cls-31{filter:url(#luminosity-noclip-2);}.cls-32{filter:url(#luminosity-noclip);}</style><filter id="luminosity-noclip" x="0.47" y="-8292" width="99.53" height="32766" filterUnits="userSpaceOnUse" color-interpolation-filters="sRGB"><feFlood flood-color="#fff" result="bg"/><feBlend in="SourceGraphic" in2="bg"/></filter><mask id="mask" x="0.47" y="-8292" width="99.53" height="32766" maskUnits="userSpaceOnUse"><g class="cls-32"/></mask><radialGradient id="radial-gradient" cx="269.6" cy="-313.74" r="505.88" gradientTransform="translate(-58.69 112.07) scale(0.4 0.57)" gradientUnits="userSpaceOnUse"><stop offset="0.62"/><stop offset="0.75" stop-color="#020202"/><stop offset="0.8" stop-color="#090909"/><stop offset="0.84" stop-color="#151515"/><stop offset="0.87" stop-color="#262626"/><stop offset="0.9" stop-color="#3c3c3c"/><stop offset="0.92" stop-color="#585858"/><stop offset="0.94" stop-color="#797979"/><stop offset="0.96" stop-color="#9f9f9f"/><stop offset="0.98" stop-color="#cbcbcb"/><stop offset="1" stop-color="#f9f9f9"/><stop offset="1" stop-color="#fff"/></radialGradient><filter id="luminosity-noclip-2" x="0.47" y="-8292" width="99.53" height="32766" filterUnits="userSpaceOnUse" color-interpolation-filters="sRGB"><feFlood flood-color="#fff" result="bg"/><feBlend in="SourceGraphic" in2="bg"/></filter><mask id="mask-2" x="0.47" y="-8292" width="99.53" height="32766" maskUnits="userSpaceOnUse"><g class="cls-31"/></mask><radialGradient id="radial-gradient-2" cx="274.6" cy="128.36" r="362.49" gradientTransform="translate(-58.69 112.07) scale(0.4 0.57)" gradientUnits="userSpaceOnUse"><stop offset="0.62"/><stop offset="0.71" stop-color="#020202"/><stop offset="0.76" stop-color="#0a0a0a"/><stop offset="0.8" stop-color="#181818"/><stop offset="0.84" stop-color="#2c2c2c"/><stop offset="0.88" stop-color="#464646"/><stop offset="0.91" stop-color="#656565"/><stop offset="0.94" stop-color="#8a8a8a"/><stop offset="0.96" stop-color="#b6b6b6"/><stop offset="0.99" stop-color="#e5e5e5"/><stop offset="1" stop-color="#fff"/></radialGradient><filter id="luminosity-noclip-3" x="2.3" y="-8292" width="97.7" height="32766" filterUnits="userSpaceOnUse" color-interpolation-filters="sRGB"><feFlood flood-color="#fff" result="bg"/><feBlend in="SourceGraphic" in2="bg"/></filter><mask id="mask-3" x="2.3" y="-8292" width="97.7" height="32766" maskUnits="userSpaceOnUse"><g class="cls-30"/></mask><radialGradient id="radial-gradient-3" cx="137.83" cy="-194.63" r="402.5" gradientTransform="translate(-58.69 112.07) scale(0.4 0.57)" gradientUnits="userSpaceOnUse"><stop offset="0.1"/><stop offset="1" stop-color="#fff"/></radialGradient><filter id="luminosity-noclip-4" x="0.47" y="-8292" width="97.7" height="32766" filterUnits="userSpaceOnUse" color-interpolation-filters="sRGB"><feFlood flood-color="#fff" result="bg"/><feBlend in="SourceGraphic" in2="bg"/></filter><mask id="mask-4" x="0.47" y="-8292" width="97.7" height="32766" maskUnits="userSpaceOnUse"><g class="cls-29"/></mask><radialGradient id="radial-gradient-4" cx="216.78" cy="-92.66" r="342.82" gradientTransform="translate(-58.69 112.07) scale(0.4 0.57)" gradientUnits="userSpaceOnUse"><stop offset="0"/><stop offset="0.01" stop-color="#090909"/><stop offset="0.05" stop-color="#373737"/><stop offset="0.09" stop-color="#626262"/><stop offset="0.14" stop-color="#888"/><stop offset="0.2" stop-color="#a8a8a8"/><stop offset="0.25" stop-color="#c4c4c4"/><stop offset="0.32" stop-color="#dadada"/><stop offset="0.4" stop-color="#ebebeb"/><stop offset="0.49" stop-color="#f6f6f6"/><stop offset="0.63" stop-color="#fdfdfd"/><stop offset="1" stop-color="#fff"/></radialGradient><filter id="luminosity-noclip-5" x="0.47" y="-8292" width="0.2" height="32766" filterUnits="userSpaceOnUse" color-interpolation-filters="sRGB"><feFlood flood-color="#fff" result="bg"/><feBlend in="SourceGraphic" in2="bg"/></filter><mask id="mask-5" x="0.47" y="-8292" width="0.2" height="32766" maskUnits="userSpaceOnUse"><g class="cls-28"/></mask><radialGradient id="radial-gradient-5" cx="14.4" cy="-194.64" r="402.45" gradientTransform="matrix(-0.4, 0, 0, 0.57, 109.96, 112.07)" xlink:href="#radial-gradient-3"/><filter id="luminosity-noclip-6" x="0.47" y="108.86" width="99.53" height="91.14" filterUnits="userSpaceOnUse" color-interpolation-filters="sRGB"><feFlood flood-color="#fff" result="bg"/><feBlend in="SourceGraphic" in2="bg"/></filter><mask id="mask-6" x="0" y="106.86" width="99.53" height="91.14" maskUnits="userSpaceOnUse"><g class="cls-27"><g transform="translate(-0.47 -2)"><g class="cls-1"><path class="cls-2" d="M59.15,108.86l-58.68,0v83.72c0,7.24,3.85,7.39,3.85,7.39H96.15s3.85-.15,3.85-7.39V108.86Z"/></g></g></g></mask><radialGradient id="radial-gradient-6" cx="269.6" cy="-313.74" r="505.88" gradientTransform="translate(-58.69 112.07) scale(0.4 0.57)" gradientUnits="userSpaceOnUse"><stop offset="0.62" stop-color="#fff"/><stop offset="0.79" stop-color="#fdfdfd"/><stop offset="0.85" stop-color="#f6f6f6"/><stop offset="0.9" stop-color="#eaeaea"/><stop offset="0.94" stop-color="#d9d9d9"/><stop offset="0.97" stop-color="#c3c3c3"/><stop offset="1" stop-color="#ababab"/></radialGradient><filter id="luminosity-noclip-7" x="0.47" y="2" width="99.53" height="98.84" filterUnits="userSpaceOnUse" color-interpolation-filters="sRGB"><feFlood flood-color="#fff" result="bg"/><feBlend in="SourceGraphic" in2="bg"/></filter><mask id="mask-7" x="0" y="0" width="99.53" height="98.84" maskUnits="userSpaceOnUse"><g class="cls-26"><g transform="translate(-0.47 -2)"><g class="cls-3"><path class="cls-4" d="M.47,100.79l25.13,0,72.41,0h2V9.4C100,2.15,96.15,2,96.15,2H4.32S.47,2.15.47,9.4v91.39Z"/></g></g></g></mask><radialGradient id="radial-gradient-7" cx="274.6" cy="128.36" r="362.49" gradientTransform="translate(-58.69 112.07) scale(0.4 0.57)" gradientUnits="userSpaceOnUse"><stop offset="0.62" stop-color="#fff"/><stop offset="0.75" stop-color="#fdfdfd"/><stop offset="0.82" stop-color="#f5f5f5"/><stop offset="0.88" stop-color="#e7e7e7"/><stop offset="0.93" stop-color="#d3d3d3"/><stop offset="0.98" stop-color="#bababa"/><stop offset="1" stop-color="#ababab"/></radialGradient><filter id="luminosity-noclip-8" x="2.3" y="2" width="97.7" height="198" filterUnits="userSpaceOnUse" color-interpolation-filters="sRGB"><feFlood flood-color="#fff" result="bg"/><feBlend in="SourceGraphic" in2="bg"/></filter><mask id="mask-8" x="1.84" y="0" width="97.7" height="198" maskUnits="userSpaceOnUse"><g class="cls-25"><g transform="translate(-0.47 -2)"><g class="cls-5"><path class="cls-6" d="M99.8,9.38v183c0,7.23-3.86,7.38-3.86,7.38H4a3.09,3.09,0,0,1-1.72-.79,3.26,3.26,0,0,0,2,1.08H96.15s3.85-.15,3.85-7.4V9.39C100,2.15,96.15,2,96.15,2h-.21S99.8,2.15,99.8,9.38Z"/></g></g></g></mask><radialGradient id="radial-gradient-8" cx="137.83" cy="-194.63" r="402.5" gradientTransform="translate(-58.69 112.07) scale(0.4 0.57)" gradientUnits="userSpaceOnUse"><stop offset="0.1" stop-color="#fff"/><stop offset="1" stop-color="#ababab"/></radialGradient><filter id="luminosity-noclip-9" x="0.47" y="2" width="97.7" height="198" filterUnits="userSpaceOnUse" color-interpolation-filters="sRGB"><feFlood flood-color="#fff" result="bg"/><feBlend in="SourceGraphic" in2="bg"/></filter><mask id="mask-9" x="0" y="0" width="97.7" height="198" maskUnits="userSpaceOnUse"><g class="cls-24"><g transform="translate(-0.47 -2)"><g class="cls-7"><path class="cls-8" d="M.67,192.62V9.67c0-7.23,3.86-7.38,3.86-7.38H96.45a3.09,3.09,0,0,1,1.72.79,3.26,3.26,0,0,0-2-1.08H4.32S.47,2.15.47,9.4V192.61c0,7.24,3.85,7.39,3.85,7.39h.21S.67,199.85.67,192.62Z"/></g></g></g></mask><radialGradient id="radial-gradient-9" cx="216.78" cy="-92.66" r="342.82" gradientTransform="translate(-58.69 112.07) scale(0.4 0.57)" gradientUnits="userSpaceOnUse"><stop offset="0" stop-color="#fff"/><stop offset="0.14" stop-color="#fff"/><stop offset="1" stop-color="#fff"/></radialGradient><filter id="luminosity-noclip-10" x="0.47" y="16.31" width="0.2" height="170.73" filterUnits="userSpaceOnUse" color-interpolation-filters="sRGB"><feFlood flood-color="#fff" result="bg"/><feBlend in="SourceGraphic" in2="bg"/></filter><mask id="mask-10" x="0" y="14.31" width="0.2" height="170.73" maskUnits="userSpaceOnUse"><g class="cls-23"><g transform="translate(-0.47 -2)"><g class="cls-9"><path class="cls-10" d="M.47,16.31V187c.06-.35.13-.7.2-1V19.4C.6,18.37.53,17.34.47,16.31Z"/></g></g></g></mask><radialGradient id="radial-gradient-10" cx="14.4" cy="-194.64" r="402.45" gradientTransform="matrix(-0.4, 0, 0, 0.57, 109.96, 112.07)" xlink:href="#radial-gradient-8"/></defs><title>ASicon</title><g class="cls-11"><g id="Layer_1" data-name="Layer 1"><path class="cls-12" d="M96.15,2H4.32S.47,2.15.47,9.4V192.61c0,7.24,3.85,7.39,3.85,7.39H96.15s3.85-.15,3.85-7.39V9.4C100,2.15,96.15,2,96.15,2Z" transform="translate(-0.47 -2)"/><g class="cls-13"><path class="cls-14" d="M59.15,108.86l-58.68,0v83.72c0,7.24,3.85,7.39,3.85,7.39H96.15s3.85-.15,3.85-7.39V108.86Z" transform="translate(-0.47 -2)"/></g><g class="cls-15"><path class="cls-16" d="M.47,100.79l25.13,0,72.41,0h2V9.4C100,2.15,96.15,2,96.15,2H4.32S.47,2.15.47,9.4v91.39Z" transform="translate(-0.47 -2)"/></g><g class="cls-17"><path class="cls-18" d="M99.8,9.38v183c0,7.23-3.86,7.38-3.86,7.38H4a3.09,3.09,0,0,1-1.72-.79,3.26,3.26,0,0,0,2,1.08H96.15s3.85-.15,3.85-7.4V9.39C100,2.15,96.15,2,96.15,2h-.21S99.8,2.15,99.8,9.38Z" transform="translate(-0.47 -2)"/></g><g class="cls-19"><path class="cls-20" d="M.67,192.62V9.67c0-7.23,3.86-7.38,3.86-7.38H96.45a3.09,3.09,0,0,1,1.72.79,3.26,3.26,0,0,0-2-1.08H4.32S.47,2.15.47,9.4V192.61c0,7.24,3.85,7.39,3.85,7.39h.21S.67,199.85.67,192.62Z" transform="translate(-0.47 -2)"/></g><g class="cls-21"><path class="cls-22" d="M.47,16.31V187c.06-.35.13-.7.2-1V19.4C.6,18.37.53,17.34.47,16.31Z" transform="translate(-0.47 -2)"/></g><path d="M8.37,40A15.69,15.69,0,0,1,6.7,46.28h3.35A15.79,15.79,0,0,1,8.37,40Z" transform="translate(-0.47 -2)"/><path d="M11.5,34.57a16.6,16.6,0,0,1-3.12-4.23h0a16.5,16.5,0,0,1-3.13,4.23,6.19,6.19,0,0,0-1.83,6.58c.76,2,3.77,2.9,5-1,1.2,3.87,4.21,2.92,5,1A6.18,6.18,0,0,0,11.5,34.57Z" transform="translate(-0.47 -2)"/><path d="M9.82,27.76v-.61a2.65,2.65,0,0,0,.66-.28.91.91,0,0,0,.32-.42,2,2,0,0,0,.1-.72,6,6,0,0,0-.07-.91c0-.33-.11-.7-.2-1.11l-.32-1.61H6.21l-.3,1.22a12.67,12.67,0,0,0-.3,1.4,5.61,5.61,0,0,0-.07.86,1.8,1.8,0,0,0,.27,1.1,1.29,1.29,0,0,0,.82.47v.61H2.87v-.61a1.42,1.42,0,0,0,.86-.81,10.46,10.46,0,0,0,.71-2L8.11,10.49H9.5l3,13.94c.14.65.26,1.15.37,1.49a2.59,2.59,0,0,0,.39.8,1.37,1.37,0,0,0,.63.43v.61ZM6.44,21h3.68L8.45,12.94Z" transform="translate(-0.47 -2)"/><path d="M91.82,161.63a15.77,15.77,0,0,1,1.68-6.25H90.15A15.67,15.67,0,0,1,91.82,161.63Z" transform="translate(-0.47 -2)"/><path d="M88.69,167.09a16.31,16.31,0,0,1,3.13,4.23h0A16.9,16.9,0,0,1,95,167.09a6.2,6.2,0,0,0,1.84-6.59c-.76-1.95-3.77-2.89-5,1-1.19-3.86-4.2-2.92-5-1A6.21,6.21,0,0,0,88.69,167.09Z" transform="translate(-0.47 -2)"/><path d="M90.38,173.89v.62a2.11,2.11,0,0,0-.66.27.91.91,0,0,0-.32.42,2,2,0,0,0-.11.72,7.85,7.85,0,0,0,.07.92q.08.49.21,1.11l.32,1.61H94l.3-1.23c.15-.61.25-1.08.3-1.4a5.51,5.51,0,0,0,.07-.86,1.8,1.8,0,0,0-.27-1.1,1.31,1.31,0,0,0-.82-.46v-.62h3.76v.62a1.36,1.36,0,0,0-.86.81,10.33,10.33,0,0,0-.71,2l-3.67,13.84H90.7l-3-13.94c-.14-.65-.27-1.15-.37-1.49a2.39,2.39,0,0,0-.4-.8,1.32,1.32,0,0,0-.62-.42v-.62Zm3.38,6.76H90.08l1.67,8.06Z" transform="translate(-0.47 -2)"/><path d="M73.85,99.07a1.69,1.69,0,0,0-.62-.14,3.23,3.23,0,0,0,1.33-2.14c.38-1.8-.34-3.7-1.61-4.24a1.77,1.77,0,0,0-1.72.2,3.41,3.41,0,0,0,1.09-2c.37-1.8-.35-3.7-1.62-4.24a1.82,1.82,0,0,0-1.93.36,4.11,4.11,0,0,0,.81-2.53c0-1.88-1.08-3.41-2.4-3.41a1.91,1.91,0,0,0-1.22.48,4.25,4.25,0,0,0,.61-2.26c0-1.88-1.08-3.4-2.4-3.4a1.9,1.9,0,0,0-1.05.34,4.3,4.3,0,0,0,.42-1.91c0-1.88-1.07-3.4-2.4-3.4a1.88,1.88,0,0,0-1.12.39,4.34,4.34,0,0,0,.51-2.09c0-1.88-1.07-3.41-2.4-3.41a1.87,1.87,0,0,0-.7.15,4.48,4.48,0,0,0,.42-1.92c0-1.88-1.07-3.41-2.4-3.41a1.87,1.87,0,0,0-1.21.48,4.33,4.33,0,0,0,.6-2.25c0-1.67-.84-3-1.94-3.35-.42-1.57-1.31-3.14-2.57-2.93s-2,1.34-2.18,2.91c-1.15.25-2,1.66-2,3.37A4.24,4.24,0,0,0,46.72,61a1.89,1.89,0,0,0-1.22-.48c-1.32,0-2.39,1.53-2.39,3.41a4.34,4.34,0,0,0,.42,1.92,1.92,1.92,0,0,0-.71-.15c-1.32,0-2.4,1.53-2.4,3.41a4.34,4.34,0,0,0,.51,2.09,1.84,1.84,0,0,0-1.12-.39c-1.32,0-2.4,1.52-2.4,3.4a4.44,4.44,0,0,0,.42,1.91,1.9,1.9,0,0,0-1-.34c-1.32,0-2.39,1.52-2.39,3.4a4.34,4.34,0,0,0,.6,2.26A1.89,1.89,0,0,0,33.77,81c-1.32,0-2.39,1.53-2.39,3.41a4.11,4.11,0,0,0,.8,2.53,1.81,1.81,0,0,0-1.93-.36c-1.27.54-2,2.44-1.61,4.24a3.41,3.41,0,0,0,1.08,2,1.77,1.77,0,0,0-1.72-.2c-1.27.54-2,2.44-1.61,4.24a3.23,3.23,0,0,0,1.33,2.14,1.79,1.79,0,0,0-.62.14c-1.27.54-2,2.43-1.61,4.24.33,1.6,1.43,2.58,2.56,2.4,0,.05,0,.1,0,.14a2.54,2.54,0,0,0-1.78,1.73,4.23,4.23,0,0,0,.94,4.62,1.78,1.78,0,0,0,2.23.06,4.35,4.35,0,0,0-.53,2.49c.12,1.87,1.3,3.24,2.61,3.06a2.6,2.6,0,0,0,1.92-1.88,4.68,4.68,0,0,0,.1,2.72c.6,1.68,2,2.35,3.22,1.5A3.3,3.3,0,0,0,38,118.26a3.64,3.64,0,0,0,.83,1.87c1,1.18,2.54.94,3.36-.52a4.35,4.35,0,0,0,.52-2.39,2.61,2.61,0,0,0,.93.91c1.23.67,2.62-.21,3.09-2a4.67,4.67,0,0,0,0-2.49,1.77,1.77,0,0,0,2.4-1.09,4,4,0,0,0,.25-2.55,1.61,1.61,0,0,0,1.17-.9,1.57,1.57,0,0,0,1.16.9,4,4,0,0,0,.25,2.55,1.77,1.77,0,0,0,2.4,1.09,4.77,4.77,0,0,0,0,2.49c.47,1.76,1.86,2.64,3.1,2a2.66,2.66,0,0,0,.92-.91,4.44,4.44,0,0,0,.52,2.39c.83,1.46,2.34,1.7,3.37.52a3.81,3.81,0,0,0,.83-1.87,3.29,3.29,0,0,0,1.17,1.89c1.18.85,2.62.18,3.22-1.5a4.67,4.67,0,0,0,.11-2.69h0a2.57,2.57,0,0,0,1.9,1.85c1.32.18,2.49-1.19,2.62-3.06a4.44,4.44,0,0,0-.54-2.49,1.78,1.78,0,0,0,2.23-.06,4.23,4.23,0,0,0,1-4.62,2.58,2.58,0,0,0-1.74-1.72v-.14c1.12.15,2.19-.83,2.52-2.41C75.84,101.5,75.12,99.61,73.85,99.07Zm-1.69-5.31a3,3,0,0,1,1.26,3.31,2.7,2.7,0,0,1-.77,1.46c-.06-.29-.12-.58-.19-.87a2.29,2.29,0,0,0,.12-.37,2.38,2.38,0,0,0-1-2.61c-.11-.33-.22-.65-.34-1A1.23,1.23,0,0,1,72.16,93.76ZM51.61,106.39c0-.28.16-.5.35-.5s.35.22.35.5-.16.49-.35.49S51.61,106.66,51.61,106.39ZM29.9,92.89,30,93l0,0A.76.76,0,0,0,29.9,92.89Zm2.63-5.61.08.07v0A.61.61,0,0,1,32.53,87.28Zm3-5.15,0,0,0,0Zm6.13-10,.22.14-.09.15A2.55,2.55,0,0,0,41.7,72.13Zm3.1-4.94.12,0-.06.11Zm2.82-4.82a4.27,4.27,0,0,0-.32-.68,2.25,2.25,0,0,0,.51.31C47.75,62.12,47.68,62.24,47.62,62.37ZM53.18,62a2.36,2.36,0,0,0,.48-.29,3.69,3.69,0,0,0-.31.63Zm2.89,5.24.09,0,0,.11S56.08,67.25,56.07,67.22Zm3,5,.2-.12a1.79,1.79,0,0,0-.12.24Zm4,10.9c0-.55.31-1,.7-1s.69.44.69,1-.31,1-.69,1S63.07,83.69,63.07,83.15Zm3.27,5.62c0-.54.31-1,.69-1s.69.44.69,1-.31,1-.69,1S66.34,89.32,66.34,88.77ZM59,111.85c0,.55-.31,1-.69,1s-.7-.44-.7-1,.31-1,.7-1S59,111.31,59,111.85Zm-3.92-2.42c0,.4-.22.72-.5.72s-.5-.32-.5-.72.22-.71.5-.71S55.05,109,55.05,109.43Zm-8.1,0c0,.4-.22.72-.5.72s-.5-.32-.5-.72.22-.71.5-.71S47,109,47,109.43Zm-3.53,2.42c0,.55-.31,1-.7,1s-.69-.44-.69-1,.31-1,.69-1S43.42,111.31,43.42,111.85ZM33.28,88.77c0-.54.31-1,.69-1s.7.44.7,1-.32,1-.7,1S33.28,89.32,33.28,88.77Zm3.26-5.62c0-.55.31-1,.69-1s.7.44.7,1-.31,1-.7,1S36.54,83.69,36.54,83.15ZM43.2,72.57c0-.54.31-1,.69-1s.7.44.7,1-.31,1-.7,1S43.2,73.12,43.2,72.57Zm3.13-5.22c0-.54.31-1,.69-1s.7.45.7,1-.31,1-.7,1S46.33,67.9,46.33,67.35Zm4.18-9.51h0Zm0,0h0Zm0,2.45h.06c.38,0,.69.44.69,1s-.31,1-.69,1h-.11c-.39,0-.7-.45-.7-1s.31-1,.7-1Zm2.78,7.07c0-.54.31-1,.7-1s.69.45.69,1-.31,1-.69,1S53.28,67.9,53.28,67.35Zm3.13,5.22c0-.54.32-1,.7-1s.69.44.69,1-.31,1-.69,1S56.41,73.12,56.41,72.57Zm5.65,33.34a1.12,1.12,0,0,0-.36-.36l0-.06a1.07,1.07,0,0,0-1.27-.22,1.47,1.47,0,0,0-.38,1.62c.1.27.31.6.52.66a.33.33,0,0,0,.22,0s.21-.15.08-.07a.21.21,0,0,0,.09-.19l0-.06s0-.08,0-.09h0c0-.28-.15-.52.07-.77a.67.67,0,0,1,.28-.2,1.5,1.5,0,0,1,.16,2.19,2.74,2.74,0,0,1-1.1.56,1.83,1.83,0,0,1-2.18-.44,3.66,3.66,0,0,1,.11-4.18,2.6,2.6,0,0,1,1.31-.74,3.75,3.75,0,0,0,1.79-.87c2.63-2,2.11-7.26.32-9.87l-.26-.36.21,0A2.18,2.18,0,0,0,64,91.2c.92-2.12-.23-5-2-5a2.61,2.61,0,0,0-2.19,2.53c-.11.91.54,1.91,1.2,2A1.46,1.46,0,0,0,62,88.31c-.28-.46-.86-.71-1.11-.07a1,1,0,0,0,.22,1.08.47.47,0,0,1-.15.06.76.76,0,0,1-.75-.38,1.36,1.36,0,0,1-.07-.76.11.11,0,0,0,0-.08,1.33,1.33,0,0,1,.38-.58,1.84,1.84,0,0,1,1-.27,1.89,1.89,0,0,1,1.87,1.56,2.64,2.64,0,0,1-1.14,2.89,1.69,1.69,0,0,1-1.31.16c-1.71-1.77-4.2-2.43-6-.77a3.38,3.38,0,0,0-.62.18c.49-.53,1-1,1.54-1.56,1-1,2.51-2.19,3-3.92.66-2.39.47-5.77-1.56-6.54-.84-.33-1.72.69-2,1.87a4,4,0,0,0-1.82-2.56,3,3,0,0,0,1.4-1.6c.89-2.4-.47-3.74-1.07-5.8,0,0,0,0,0,0,.32,1.81,1.47,4.21-.18,5.65a8,8,0,0,1-1.17.76,2.57,2.57,0,0,0,.42-.53,6.47,6.47,0,0,0,.62-3.16c0-2.46-1.81-3.92-2.49-6a8.24,8.24,0,0,1-.53-1.54,7.05,7.05,0,0,1-.66,2.18c-.8,1.79-2.22,3.19-2.25,5.4a6.36,6.36,0,0,0,.63,3.16,2.52,2.52,0,0,0,.41.53,7.45,7.45,0,0,1-1.16-.76c-1.66-1.44-.51-3.84-.19-5.65,0,0,0,0,0,0-.61,2.06-2,3.4-1.08,5.8a3,3,0,0,0,1.4,1.6,4,4,0,0,0-1.82,2.56c-.29-1.18-1.17-2.2-2-1.87-2,.77-2.22,4.15-1.56,6.54.48,1.73,2,2.94,3,3.92.55.52,1.06,1,1.54,1.56a3.38,3.38,0,0,0-.62-.18c-1.83-1.66-4.32-1-6,.77a1.71,1.71,0,0,1-1.32-.16,2.64,2.64,0,0,1-1.14-2.89,1.9,1.9,0,0,1,1.88-1.56,1.81,1.81,0,0,1,1,.27,1.33,1.33,0,0,1,.38.58s0,0,0,.08a1.28,1.28,0,0,1-.07.76.75.75,0,0,1-.74.38.34.34,0,0,1-.15-.06A1,1,0,0,0,40,88.24c-.25-.64-.82-.39-1.1.07a1.46,1.46,0,0,0,1,2.34c.66-.06,1.31-1.06,1.2-2A2.6,2.6,0,0,0,39,86.15c-1.79,0-2.93,2.93-2,5a2.19,2.19,0,0,0,2.36,1.29l.22,0-.27.36c-1.79,2.61-2.31,7.89.32,9.87a3.74,3.74,0,0,0,1.8.87,2.69,2.69,0,0,1,1.31.74,3.66,3.66,0,0,1,.1,4.18,1.83,1.83,0,0,1-2.18.44,2.64,2.64,0,0,1-1.09-.56,1.49,1.49,0,0,1,.15-2.19.67.67,0,0,1,.28.2c.22.25.08.49.08.77h0a.08.08,0,0,0,0,.09l0,.06a.26.26,0,0,0,.09.19c-.13-.08.07.06.09.07a.3.3,0,0,0,.21,0c.22-.06.43-.39.52-.66a1.45,1.45,0,0,0-.38-1.62,1.07,1.07,0,0,0-1.27.22.21.21,0,0,1,0,.06,1.1,1.1,0,0,0-.35.36,3.71,3.71,0,0,0-.2,2.51,2.68,2.68,0,0,0,.57.94c-2.27-.43-4.21-2.06-5.15-5.11-2.26-7.34.59-14,6.71-23.09,7.09-10.58,9.55-16.38,9.64-16.58h0c.09.2,2.55,6,9.64,16.58,6.12,9.14,9,15.75,6.72,23.09-.94,3-2.89,4.68-5.16,5.11a2.68,2.68,0,0,0,.57-.94A3.77,3.77,0,0,0,62.06,105.91Zm-5.1,1.2a5.08,5.08,0,0,0,.44,1.51,18.43,18.43,0,0,1-2.59-2.48,13.16,13.16,0,0,1-3.26-6.87c-.42-2.94,1.16-6.91,3.51-6.85,1.62,0,4.08,1.1,3.29,4.45-.4,1.23-1.05,1.87-1.93,1.93-.76.23-1-.4-.74-1.86,0,0,.09,0,.07,0-.21-.91-1.28-2-1.77-.6a3,3,0,0,0,1.51,3.79,2.2,2.2,0,0,0,2.38-.48,3.5,3.5,0,0,0,.62,3.45,2.25,2.25,0,0,0,.24.21A3.46,3.46,0,0,0,57,107.11Zm-1.38-23.8c.73,1,1.61,0,1.09-1.45,0,0,0,0,0,0-.91-3.56,2.1-2.45,1.93.43a12,12,0,0,1-.8,3.62,8.85,8.85,0,0,1-2.64,3.83A13.08,13.08,0,0,0,53,92.25,7.38,7.38,0,0,0,51.31,95a11.84,11.84,0,0,1,1.24-3.4c1-1.82,2.57-3.84,2.91-6.23A14.19,14.19,0,0,0,55.58,83.31Zm4.3,17.57.2.09c.16.08.35,0,.44-.24.79-1.68-.69-2.85-1.8-2.26a5.54,5.54,0,0,0,.55-1.78,5.3,5.3,0,0,0-2.2-5,3.11,3.11,0,0,0-1.78-.52c2.38-1.22,5.7.61,6.77,3.76.64,1.88.86,5.41-.55,6.84-.65.64-2.14,1.35-2.77.06q-1.16-3.14,1-2.28C59.13,99.46,59.48,100.7,59.88,100.88ZM52.34,73.23a10.45,10.45,0,0,1-1.39,5,4.78,4.78,0,0,0-.47,1.41A4.8,4.8,0,0,0,50,78.27a10.56,10.56,0,0,1-1.39-5,5.89,5.89,0,0,1,.16-.67c.52-1.67,1.53-2.78,1.71-4.39.17,1.61,1.18,2.72,1.7,4.39A5.89,5.89,0,0,1,52.34,73.23ZM42.22,103.29a2.25,2.25,0,0,0,.24-.21,3.47,3.47,0,0,0,.62-3.45,2.21,2.21,0,0,0,2.39.48A3,3,0,0,0,47,96.32c-.48-1.41-1.56-.31-1.77.6,0,.06,0,.07.07,0,.27,1.46,0,2.09-.73,1.86-.89-.06-1.54-.7-1.94-1.93-.78-3.35,1.67-4.42,3.29-4.45,2.35-.06,3.94,3.91,3.51,6.85a13.16,13.16,0,0,1-3.26,6.87,18.91,18.91,0,0,1-2.58,2.48,5.39,5.39,0,0,0,.44-1.51A3.46,3.46,0,0,0,42.22,103.29Zm-.53-6.6a5.79,5.79,0,0,0,.54,1.78c-1.1-.59-2.59.58-1.79,2.26.09.19.27.32.44.24l.2-.09c.39-.18.74-1.42.11-1.38,1.45-.57,1.8.19,1,2.28-.63,1.29-2.12.58-2.76-.06-1.42-1.43-1.2-5-.56-6.84,1.07-3.15,4.39-5,6.77-3.76a3.08,3.08,0,0,0-1.77.52A5.3,5.3,0,0,0,41.69,96.69ZM48,92.25a13.14,13.14,0,0,0-2.19-2.5,8.85,8.85,0,0,1-2.64-3.83,12.31,12.31,0,0,1-.8-3.62c-.17-2.88,2.84-4,1.93-.43,0,0,0,0,0,0-.53,1.45.36,2.48,1.09,1.45a12.81,12.81,0,0,0,.11,2c.34,2.39,1.89,4.41,2.91,6.23A11.55,11.55,0,0,1,49.64,95,7.5,7.5,0,0,0,48,92.25Zm2.48-28.74h0Zm0,0h0ZM40.4,79.06c-.38,0-.69-.44-.69-1s.31-1,.69-1,.7.44.7,1S40.79,79.06,40.4,79.06Zm-6.26,31.11c.47,0,.86.54.86,1.22s-.39,1.22-.86,1.22-.86-.55-.86-1.22S33.66,110.17,34.14,110.17ZM45.33,108l.73-.68a13.54,13.54,0,0,0,4-7.19,8.54,8.54,0,0,0,.19-2,10.66,10.66,0,0,0-.56-4.87c-.74-1.89-1.8-3.44-2.53-5.33a18,18,0,0,1-.83-3.15,10.65,10.65,0,0,1-.17-1.7c0-.45,0-.9,0-1.35.47-2.28,3-2.9,2.88-.33A1.52,1.52,0,0,0,48.4,84c.93.9,1.71.14,2.08-1.07.36,1.21,1.14,2,2.08,1.07a1.52,1.52,0,0,0-.66-2.63c-.09-2.57,2.41-2,2.88.33,0,.45,0,.9,0,1.35a10.65,10.65,0,0,1-.17,1.7,17.15,17.15,0,0,1-.83,3.15c-.73,1.89-1.79,3.44-2.53,5.33a10.66,10.66,0,0,0-.56,4.87,9.15,9.15,0,0,0,.19,2,13.54,13.54,0,0,0,4,7.19l.73.68a13.93,13.93,0,0,1-5.14-6A14,14,0,0,1,45.33,108Zm21.54,2.21c.47,0,.85.54.85,1.22s-.38,1.22-.85,1.22-.87-.55-.87-1.22S66.39,110.17,66.87,110.17ZM60.6,79.06c-.39,0-.7-.44-.7-1s.31-1,.7-1,.69.44.69,1S61,79.06,60.6,79.06Zm-10-22.41-.07-.16v0h0v0h0v0h0v0l-.08.2a2.75,2.75,0,0,0-.91-1,1,1,0,0,1,1.14-.31,1.44,1.44,0,0,1,.54.51A3.17,3.17,0,0,0,50.58,56.65ZM32.4,106.83c0,.73-.42,1.33-.94,1.33s-.94-.6-.94-1.33.42-1.34.94-1.34S32.4,106.09,32.4,106.83Zm-.74-11.56c-.38,0-.7-.44-.7-1s.32-1,.7-1,.69.44.69,1S32,95.27,31.66,95.27Zm-1,3.82c.49,0,.88.55.88,1.24s-.39,1.24-.88,1.24-.87-.56-.87-1.24S30.17,99.09,30.65,99.09Zm6.78,14c0-.54.31-1,.7-1s.69.44.69,1-.31,1-.69,1S37.43,113.64,37.43,113.09Zm11.26-6.7c0-.28.16-.5.35-.5s.35.22.35.5-.16.49-.35.49S48.69,106.66,48.69,106.39Zm13.49,6.7c0-.54.31-1,.7-1s.69.44.69,1-.31,1-.69,1S62.18,113.64,62.18,113.09Zm7.36-7.6c.52,0,.94.6.94,1.34s-.42,1.33-.94,1.33-.94-.6-.94-1.33S69,105.49,69.54,105.49Zm-.89-11.21c0-.54.31-1,.69-1s.7.44.7,1-.31,1-.7,1S68.65,94.83,68.65,94.28Zm1.7,7.29c-.48,0-.87-.56-.87-1.24s.39-1.24.87-1.24.87.55.87,1.24S70.83,101.57,70.35,101.57Zm-5-19.43h0l0,0Zm3,5.18a.1.1,0,0,0,0,0,.21.21,0,0,1,0,.06ZM71,92.92l.07,0-.06,0Zm-1.07-5.16a3.19,3.19,0,0,1,.78,4.43c-.12-.29-.24-.58-.37-.87v0a2.35,2.35,0,0,0-1-2.64,1.11,1.11,0,0,0-.3-.08l-.36-.7A1.29,1.29,0,0,1,69.91,87.76Zm-3.25-5.31c1,0,1.88,1.19,1.88,2.66a3.38,3.38,0,0,1-.44,1.7c-.13-.22-.25-.45-.37-.67a3.73,3.73,0,0,0,0-.48c0-1.17-.67-2.12-1.49-2.12h-.06c-.15-.25-.3-.5-.46-.75A1.46,1.46,0,0,1,66.66,82.45Zm-3-5.19c1,0,1.88,1.2,1.88,2.67a3.34,3.34,0,0,1-.46,1.73l-.37-.59a2.88,2.88,0,0,0,.06-.59c0-1.17-.67-2.12-1.49-2.12a1,1,0,0,0-.3,0l-.41-.62A1.53,1.53,0,0,1,63.65,77.26Zm-3-5c1,0,1.88,1.19,1.88,2.67A3.26,3.26,0,0,1,62,76.83l-.34-.52a2.64,2.64,0,0,0,.12-.81c0-1.17-.67-2.12-1.49-2.12a1,1,0,0,0-.42.09c-.12-.19-.25-.39-.36-.58A1.55,1.55,0,0,1,60.62,72.29Zm-3-5.1c1,0,1.87,1.19,1.87,2.66a3.2,3.2,0,0,1-.66,2l-.29-.47a2.91,2.91,0,0,0,.18-1c0-1.17-.66-2.12-1.49-2.12a1,1,0,0,0-.48.12c-.11-.2-.22-.39-.34-.58A1.59,1.59,0,0,1,57.62,67.19ZM54.93,62c1,0,1.88,1.19,1.88,2.67a3,3,0,0,1-.91,2.25l-.21-.36A2.63,2.63,0,0,0,56,65.22c0-1.17-.67-2.12-1.49-2.12a1.14,1.14,0,0,0-.66.22l-.28-.52A1.63,1.63,0,0,1,54.93,62ZM53.8,59.49A3.09,3.09,0,0,1,53,61.66c-.08-.16-.16-.3-.23-.45A2.72,2.72,0,0,0,53,60c0-1.17-.67-2.12-1.49-2.12a1.15,1.15,0,0,0-.36.07l-.31-.68a1.5,1.5,0,0,1,1.05-.49C53,56.82,53.8,58,53.8,59.49Zm-3.29-6c.94,0,1.59.82,2,1.87h-.1a1.91,1.91,0,0,0-.58.1,1.75,1.75,0,0,0-1.46-1,1.61,1.61,0,0,0-1.18,1.07,1.71,1.71,0,0,0-.71-.16H48.4A2.37,2.37,0,0,1,50.51,53.49ZM49,56.82a1.53,1.53,0,0,1,1.09.52l-.31.66a1.1,1.1,0,0,0-.4-.08c-.82,0-1.49.95-1.49,2.12a2.7,2.7,0,0,0,.28,1.21c-.07.15-.15.29-.22.44a3.06,3.06,0,0,1-.83-2.2C47.15,58,48,56.82,49,56.82ZM46,62a1.66,1.66,0,0,1,1.35.83c-.09.17-.18.33-.27.51a1.15,1.15,0,0,0-.7-.25c-.82,0-1.49.95-1.49,2.12a2.64,2.64,0,0,0,.37,1.39l-.2.35a3,3,0,0,1-.94-2.28C44.14,63.2,45,62,46,62Zm-2.68,5.18a1.6,1.6,0,0,1,1.23.66l-.33.57a1.07,1.07,0,0,0-.52-.14c-.82,0-1.49,1-1.49,2.12a2.64,2.64,0,0,0,.2,1c-.09.15-.18.31-.28.46a3.14,3.14,0,0,1-.69-2.05C41.46,68.38,42.3,67.19,43.34,67.19Zm-3,5.1a1.55,1.55,0,0,1,1.19.63c-.11.19-.23.38-.35.57a1,1,0,0,0-.46-.11c-.82,0-1.49,1-1.49,2.12a2.93,2.93,0,0,0,.13.86c-.1.17-.21.34-.32.51A3.21,3.21,0,0,1,38.45,75C38.45,73.48,39.29,72.29,40.33,72.29Zm-3,5a1.53,1.53,0,0,1,1.12.55c-.13.2-.27.4-.4.61a1,1,0,0,0-.33-.06c-.83,0-1.5,1-1.5,2.12a2.75,2.75,0,0,0,.08.65l-.36.57a3.29,3.29,0,0,1-.49-1.77C35.42,78.46,36.26,77.26,37.3,77.26Zm-3,5.19a1.44,1.44,0,0,1,.93.37c-.15.24-.3.48-.44.73h-.1c-.83,0-1.5.95-1.5,2.12a3.08,3.08,0,0,0,.06.54l-.36.65a3.29,3.29,0,0,1-.46-1.74C32.42,83.64,33.26,82.45,34.29,82.45ZM31,87.76a1.35,1.35,0,0,1,1.29.13l-.35.68a1.11,1.11,0,0,0-.35.08,2.36,2.36,0,0,0-1,2.64l0,.09-.36.85a2.82,2.82,0,0,1-.51-1.15A3,3,0,0,1,31,87.76Zm-3.51,9.31a3,3,0,0,1,1.26-3.31,1.28,1.28,0,0,1,.92,0c-.11.31-.22.62-.32.93h0a2.35,2.35,0,0,0-1,2.64,2.15,2.15,0,0,0,.14.45c-.06.27-.12.55-.17.83A2.7,2.7,0,0,1,27.53,97.07Zm.42,4.52a2.7,2.7,0,0,0-.48,2.21,2.22,2.22,0,0,0,.49,1c0,.2,0,.4.05.6a2.28,2.28,0,0,1-1.38-1.82,3,3,0,0,1,1.26-3.32l.19,0C28,100.68,28,101.14,28,101.59Zm.22,9.68a3.33,3.33,0,0,1-.74-3.63,2.41,2.41,0,0,1,.74-1c0,.33.11.65.17,1a.93.93,0,0,1-.05.1,2.63,2.63,0,0,0,.59,2.88,1.4,1.4,0,0,0,.33.19c.1.26.21.5.32.74A1.37,1.37,0,0,1,28.17,111.27Zm3.78,5c-1,.14-1.95-.93-2.05-2.4a3.77,3.77,0,0,1,.15-1.32c.2.33.4.64.61.94.17,1,.82,1.72,1.57,1.64a7.54,7.54,0,0,0,.73.53A1.62,1.62,0,0,1,32,116.27Zm4.82,2.23c-.93.67-2.06.14-2.52-1.17a3.56,3.56,0,0,1-.2-1.11,8.21,8.21,0,0,0,.78.29c.41.92,1.24,1.27,1.93.77a1.46,1.46,0,0,0,.38-.4h.57A2.6,2.6,0,0,1,36.77,118.5Zm4.89-.39a1.54,1.54,0,0,1-2.64.41,3,3,0,0,1-.67-1.69,5,5,0,0,0,.52-.07,1.89,1.89,0,0,0,.33.57,1.22,1.22,0,0,0,2.1-.33,2.42,2.42,0,0,0,.3-1c.14,0,.27-.12.4-.18A3.5,3.5,0,0,1,41.66,118.11ZM45.9,115c-.37,1.37-1.46,2.06-2.43,1.54a2.13,2.13,0,0,1-.86-1l.62-.34a1,1,0,0,0,.16.12c.77.42,1.63-.13,1.93-1.22a2.14,2.14,0,0,0,.07-.43c.18-.15.35-.31.52-.47A3.66,3.66,0,0,1,45.9,115Zm2.68-3.6a1.4,1.4,0,0,1-1.74.9,18.89,18.89,0,0,0,1.86-2.32l.15.06A3,3,0,0,1,48.58,111.35Zm1.57-3.55a1.61,1.61,0,0,1-.69,1c.25-.42.48-.86.7-1.3A2,2,0,0,0,50.15,107.8Zm.66,0a3.59,3.59,0,0,0,0-.47c.25.5.5,1,.78,1.45A1.53,1.53,0,0,1,50.81,107.8Zm1.57,3.55a2.91,2.91,0,0,1-.27-1.36l.18-.07a19.67,19.67,0,0,0,1.86,2.32A1.39,1.39,0,0,1,52.38,111.35Zm5.1,5.14c-1,.52-2-.17-2.43-1.54a3.66,3.66,0,0,1,0-1.83c.16.15.33.31.5.45a2.7,2.7,0,0,0,.09.48c.29,1.09,1.15,1.64,1.92,1.22a1.18,1.18,0,0,0,.18-.13c.21.12.41.23.62.33A2.17,2.17,0,0,1,57.48,116.49Zm4.45,2a1.54,1.54,0,0,1-2.64-.41,3.49,3.49,0,0,1-.33-2.34l.39.18a2.5,2.5,0,0,0,.3,1,1.23,1.23,0,0,0,2.1.33,2.33,2.33,0,0,0,.34-.57l.51.07A3,3,0,0,1,61.93,118.52Zm4.78-1.19c-.47,1.31-1.6,1.84-2.53,1.17a2.57,2.57,0,0,1-.93-1.63,5.42,5.42,0,0,0,.57,0,1.42,1.42,0,0,0,.37.4c.69.49,1.51.15,1.92-.75.27-.08.53-.18.79-.28A3.66,3.66,0,0,1,66.71,117.33Zm4.34-3.46c-.1,1.47-1,2.54-2,2.4a1.59,1.59,0,0,1-1-.59,7.67,7.67,0,0,0,.76-.55c.71,0,1.33-.62,1.51-1.57a11.24,11.24,0,0,0,.64-1A3.68,3.68,0,0,1,71.05,113.87Zm2.47-6.23a3.33,3.33,0,0,1-.74,3.63,1.39,1.39,0,0,1-1.31.25c.11-.26.22-.51.32-.78a1.61,1.61,0,0,0,.28-.17,2.62,2.62,0,0,0,.59-2.88l0,0c.07-.34.13-.68.19-1A2.4,2.4,0,0,1,73.52,107.64Zm.8-4a2.3,2.3,0,0,1-1.33,1.8c0-.21,0-.42.05-.63a2.25,2.25,0,0,0,.44-1,2.73,2.73,0,0,0-.42-2.15c0-.47-.08-.94-.14-1.42l.14,0A3,3,0,0,1,74.32,103.59Z" transform="translate(-0.47 -2)"/><polygon points="50.01 62.58 50.01 62.57 50.01 62.57 50.01 62.58"/><polygon points="50.01 62.57 50.01 62.57 50.01 62.58 50.01 62.57"/><path d="M35.26,94.8s0,0,0,0a6.71,6.71,0,0,0-.31,3.8c.32,1.39,1.08,3,2.21,3,.21,0,.35-.3.26-.57-.35-1.09-1-1.82-1.44-2.84A9.93,9.93,0,0,1,35.26,94.8Z" transform="translate(-0.47 -2)"/><path d="M36.38,102a2.66,2.66,0,0,0-1.65,1.78c-.31.91.61,1.32.87.46s1-1,1.49-1.29a7.75,7.75,0,0,0,1.24-.57s0,0,0,0c-.29,0-.68-.2-1-.3A1.53,1.53,0,0,0,36.38,102Z" transform="translate(-0.47 -2)"/><path d="M45.36,102.69a1.05,1.05,0,0,0-1.07,0,1.56,1.56,0,0,0-.46.36c-.16.17-.23.44-.38.6s0,.08,0,.1.37,0,.56.07.57.15.85.26C45.44,104.36,46,103.12,45.36,102.69Z" transform="translate(-0.47 -2)"/><path d="M43.72,102.54l.09-.06c.07,0-.08.07.08,0a1.13,1.13,0,0,0,.32-.48c.07-.22,0-.53-.13-.62s-.38.08-.45.31a1.28,1.28,0,0,0-.07.39c0,.07,0,.07,0,0h0a1.82,1.82,0,0,1-.09.37s-.08.07,0,.12S43.63,102.57,43.72,102.54Z" transform="translate(-0.47 -2)"/><path d="M46.48,102.76a.66.66,0,0,0,.38-.54c0-.21,0-.53-.2-.6a.56.56,0,0,0-.48.08.47.47,0,0,0-.22.22,1.86,1.86,0,0,1-.1.2.12.12,0,0,0,0,.15C46.05,102.52,46.15,102.85,46.48,102.76Z" transform="translate(-0.47 -2)"/><path d="M35,101.73a.51.51,0,0,0,.15-.58c-.22-.49-.58-.75-.81-1.22a6.87,6.87,0,0,1-.5-1.83s0,0,0,0a3.91,3.91,0,0,0-.18,2.44C33.83,101.38,34.34,102.07,35,101.73Z" transform="translate(-0.47 -2)"/><path d="M36.9,98.49c.17.16.36-.12.33-.38A5.41,5.41,0,0,0,37,97a2.44,2.44,0,0,1-.18-.73,6.09,6.09,0,0,1,0-.72s0,0,0,0a4.5,4.5,0,0,0-.4,1.48A1.81,1.81,0,0,0,36.9,98.49Z" transform="translate(-0.47 -2)"/><path d="M63.81,101.57c1.13.05,1.89-1.59,2.21-3a6.71,6.71,0,0,0-.31-3.8s0,0,0,0A10.16,10.16,0,0,1,65,98.16c-.44,1-1.09,1.75-1.45,2.84C63.46,101.27,63.6,101.56,63.81,101.57Z" transform="translate(-0.47 -2)"/><path d="M63.86,103c.5.29,1.27.51,1.5,1.29s1.18.45.86-.46A2.66,2.66,0,0,0,64.57,102a1.54,1.54,0,0,0-1,0c-.28.1-.68.35-1,.3,0,0,0,0,0,0A8.17,8.17,0,0,0,63.86,103Z" transform="translate(-0.47 -2)"/><path d="M57.12,103.1a1.52,1.52,0,0,0-.45-.36c-.35-.14-.74-.3-1.08,0-.59.43-.08,1.67.5,1.44.28-.11.57-.15.86-.26s.37,0,.56-.07c0,0,0-.08,0-.1S57.28,103.27,57.12,103.1Z" transform="translate(-0.47 -2)"/><path d="M57.48,102.46s-.08-.33-.1-.37h0s0,0,0,0a1.27,1.27,0,0,0-.06-.39c-.08-.23-.28-.4-.45-.31s-.21.4-.13.62a1,1,0,0,0,.32.48c.15.11,0,0,.07,0a.33.33,0,0,0,.1.06c.08,0,.21.16.28,0S57.52,102.46,57.48,102.46Z" transform="translate(-0.47 -2)"/><path d="M55,101.92a.47.47,0,0,0-.22-.22.56.56,0,0,0-.48-.08c-.18.07-.23.39-.2.6a.66.66,0,0,0,.39.54c.33.09.42-.24.63-.49a.14.14,0,0,0,0-.15A2,2,0,0,1,55,101.92Z" transform="translate(-0.47 -2)"/><path d="M65.82,101.15a.54.54,0,0,0,.15.58c.65.34,1.15-.35,1.38-1.18a3.84,3.84,0,0,0-.18-2.44s0,0,0,0a6.87,6.87,0,0,1-.5,1.83C66.41,100.4,66,100.66,65.82,101.15Z" transform="translate(-0.47 -2)"/><path d="M64.05,98.49a1.85,1.85,0,0,0,.51-1.42,4.77,4.77,0,0,0-.41-1.48s0,0,0,0c0,.23.07.51.06.72A2.45,2.45,0,0,1,64,97a5.41,5.41,0,0,0-.27,1.07C63.69,98.37,63.88,98.65,64.05,98.49Z" transform="translate(-0.47 -2)"/><path d="M49.36,74.3a9.44,9.44,0,0,0,1.09,3.36,9.53,9.53,0,0,0,1.08-3.36,8.42,8.42,0,0,0-1.08-3.91A8.38,8.38,0,0,0,49.36,74.3Z" transform="translate(-0.47 -2)"/><path d="M50.45,84.14s-1.73,3-1.52,5.45a13,13,0,0,0,1.52,4.69A13.08,13.08,0,0,0,52,89.59C52.17,87.19,50.45,84.14,50.45,84.14Z" transform="translate(-0.47 -2)"/><path d="M53.86,87.12A7,7,0,0,0,53.5,84a5.39,5.39,0,0,0-1.24,2.63,7.8,7.8,0,0,0,.42,2.72A6,6,0,0,0,53.86,87.12Z" transform="translate(-0.47 -2)"/><path d="M47.43,84a7,7,0,0,0-.36,3.12,6,6,0,0,0,1.18,2.23,8.07,8.07,0,0,0,.42-2.72A5.48,5.48,0,0,0,47.43,84Z" transform="translate(-0.47 -2)"/><path d="M62.47,121.66h0c-5,0-9.37-3.24-11.87-8.88a.13.13,0,0,0-.24,0c-2.51,5.64-6.83,8.88-11.88,8.88-5.87,0-11.16-4.52-13.14-11.25-3.54-12,1.11-22.59,10.34-36.92,8.91-13.83,13.1-22.61,14.5-25.75l.3-.67.3.67c1.39,3.13,5.58,11.91,14.49,25.75,9.23,14.33,13.88,25,10.35,36.92C73.63,117.14,68.34,121.66,62.47,121.66Zm-12-10a.84.84,0,0,1,.72.56c2.37,5.35,6.48,8.41,11.27,8.41v0c5.59,0,10.61-4.27,12.49-10.64,3.39-11.45-1.18-21.81-10.21-35.85A207.37,207.37,0,0,1,50.48,49,208.71,208.71,0,0,1,36.2,74.16c-9,14-13.6,24.4-10.21,35.85,1.88,6.37,6.9,10.64,12.49,10.64,4.8,0,8.91-3.06,11.28-8.41A.82.82,0,0,1,50.48,111.68Z" transform="translate(-0.47 -2)"/><path d="M66.83,71.86C56,55,51.74,45.12,51,43.27h0a.66.66,0,0,0-.24-.36.36.36,0,0,0-.17-.07h-.1a.31.31,0,0,0-.13,0h0l-.08,0,0,0,0,0a.65.65,0,0,0-.18.29h0c-.75,1.8-5,11.66-15.87,28.6C24.05,87.61,19,99.34,22.91,112.71c2.24,7.62,8.15,12.74,14.72,12.74A13.33,13.33,0,0,0,48.17,120l.06,0h0c-2.34,24.67-10.12,41.54-10.12,41.54h24.7S55,144.74,52.71,120l0,0a13.33,13.33,0,0,0,10.56,5.45h0c6.57,0,12.48-5.12,14.72-12.74C82,99.34,76.9,87.61,66.83,71.86ZM49.25,149.43A9.44,9.44,0,0,1,50,153s0,.05,0,0c-.28-2.83-2.69-3.44-3-6.12a6.61,6.61,0,0,1,.85-4.43c0-.09.13,0,.08.1C46.49,145.6,48.33,147.19,49.25,149.43Zm.62-10.75a16.44,16.44,0,0,0-.11,9c0,.11-.09.21-.14.12a9.27,9.27,0,0,1-1.34-6.61c.74-3.47,1.95-6.32,2.12-10h0c.17,3.71,1.37,6.56,2.12,10a9.27,9.27,0,0,1-1.34,6.61c-.06.09-.17,0-.14-.12a16.44,16.44,0,0,0-.11-9,20.43,20.43,0,0,1-.55-3.54A22.55,22.55,0,0,1,49.87,138.68Zm3,3.86c0-.1,0-.19.08-.1a6.55,6.55,0,0,1,.86,4.43c-.36,2.68-2.77,3.29-3.06,6.12,0,0,0,0,0,0a9.64,9.64,0,0,1,.79-3.54C52.38,147.19,54.22,145.6,52.82,142.54Zm1.79.81c1.23,3,2.67,5.49,2.64,9.14a7.44,7.44,0,0,1-2.63,6.12c-3,2.22-5.94-5.18-2.55-7.11a.7.7,0,0,1,.67,0c.5,0,1,.36,1.49.35.71,0,1.25-.67,1.34-1.67a1.38,1.38,0,0,0-.7-1.53.56.56,0,0,0-.61.22,1,1,0,0,0,0,.69c.06-.11.15,0,.19,0l0,0a.26.26,0,0,1,0,.21c-.4.64-1.12-.66-.76-1.29.51-.92,1.47-.61,1.92.26a3,3,0,0,1-.52,2.93,1.49,1.49,0,0,1-.76.46,3.79,3.79,0,0,1,.84,1.33,2.48,2.48,0,0,1-1.06,3.19s-.07-.06,0-.09c.73-.53.53-2.11.12-2.85a2.13,2.13,0,0,0-.34-.45c0,1.42-1.22,2.73-1.58,1.43-.1-.35.16-.54.33-.27.76-.53-.32-3.93-1.44-1.68A3.62,3.62,0,0,0,53,157.7c2.51,1.1,3.74-2.5,3.8-5.35.08-3.77-2.25-7.66-3.33-11a69.53,69.53,0,0,1-3.1-14.6,70.17,70.17,0,0,1-3.1,14.6c-1.08,3.3-3.41,7.19-3.33,11,.06,2.85,1.29,6.45,3.79,5.35a3.62,3.62,0,0,0,1.89-4.84c-1.12-2.25-2.21,1.15-1.44,1.68.16-.27.43-.08.33.27-.37,1.3-1.59,0-1.59-1.43a2.48,2.48,0,0,0-.33.45c-.42.74-.62,2.32.11,2.85,0,0,0,.11,0,.09a2.48,2.48,0,0,1-1.06-3.19,3.81,3.81,0,0,1,.85-1.33,1.42,1.42,0,0,1-.76-.46,3,3,0,0,1-.52-2.93c.44-.87,1.4-1.18,1.92-.26.35.63-.36,1.93-.77,1.29a.26.26,0,0,1,0-.21l0,0c0-.09.13-.16.18,0a1,1,0,0,0,0-.69.55.55,0,0,0-.6-.22,1.4,1.4,0,0,0-.71,1.53c.1,1,.64,1.65,1.34,1.67.51,0,1-.33,1.49-.35a.72.72,0,0,1,.68,0c3.38,1.93.47,9.33-2.56,7.11a7.46,7.46,0,0,1-2.62-6.12c0-3.65,1.41-6.11,2.63-9.14a67.51,67.51,0,0,0,4.11-17.27,2.38,2.38,0,0,1,0-.26h0l.09-.45c.07.43.14.85.22,1.27A66.87,66.87,0,0,0,54.61,143.35ZM76.5,110.94c-2,6.8-7.43,11.36-13.44,11.36h0c-5.16,0-9.59-3.27-12.14-9a.52.52,0,0,0-.44-.34.51.51,0,0,0-.44.34c-2.56,5.7-7,9-12.14,9-6,0-11.42-4.56-13.45-11.36-3.63-12.15,1.2-23,10.78-37.77,9.41-14.45,13.82-23.62,15.25-26.8,1.42,3.18,5.84,12.35,15.24,26.8C75.3,87.89,80.13,98.79,76.5,110.94Z" transform="translate(-0.47 -2)"/></g></g></svg>